# xmcd CD database file
#
# Track frame offsets:
#	182
#	12287
#	25647
#	36220
#	47395
#	58557
#	73975
#	83745
#	94472
#	105320
#	118182
#	132910
#
# Disc length: 1877 seconds
#
# Revision: 2
# Processed by: cddbd v1.5.2PL0 Copyright (c) Steve Scherf et al.
# Submitted via: CDex 1.70beta2
#
DISCID=9807530c
DTITLE=Flippers - Freut euch des Lebens
DYEAR=1900
DGENRE=Country
TTITLE0=Ännchen von Tharau
TTITLE1=Das Wandern ist des Müllers Lust u.a.
TTITLE2=Lustig ist das Zigeunerleben
TTITLE3=Am Brunnen vor dem Tore
TTITLE4=Hoch auf dem gelben Wagen u.a.
TTITLE5=Es waren zwei Königskinder
TTITLE6=Du, du liegst mir am Herzen, Freut euch des Lebens
TTITLE7=Hohe Tannen
TTITLE8=Horch, was kommt von draußen rein u.a.
TTITLE9=Sah ein Knab´ein Röslein steh´n
TTITLE10=Ich weiß nicht was soll es bedeuten
TTITLE11=Guten Abend, gute Nacht
EXTD=
EXTT0=
EXTT1=
EXTT2=
EXTT3=
EXTT4=
EXTT5=
EXTT6=
EXTT7=
EXTT8=
EXTT9=
EXTT10=
EXTT11=
PLAYORDER=
